<svg xmlns="http://www.w3.org/2000/svg" viewBox="0 0 800 600" width="100%" height="100%">
  <defs>
    <linearGradient id="seaBg" x1="0" y1="0" x2="0" y2="1">
      <stop offset="0%" stop-color="#0284c7"/>
      <stop offset="45%" stop-color="#0369a1"/>
      <stop offset="85%" stop-color="#0c4a6e"/>
      <stop offset="100%" stop-color="#082f49"/>
    </linearGradient>
    <radialGradient id="bubbleGlow" cx="35%" cy="35%" r="65%">
      <stop offset="0%" stop-color="#ffffff" stop-opacity="0.9"/>
      <stop offset="40%" stop-color="#a5f3fc" stop-opacity="0.6"/>
      <stop offset="100%" stop-color="#06b6d4" stop-opacity="0.3"/>
    </radialGradient>
    <filter id="waterShine" x="-20%" y="-20%" width="140%" height="140%">
      <feGaussianBlur stdDeviation="5" result="blur"/>
      <feComposite in="SourceGraphic" in2="blur" operator="over"/>
    </filter>
  </defs>
  <rect width="800" height="600" fill="url(#seaBg)"/>

  <polygon points="120,0 260,0 350,600 180,600" fill="#ffffff" opacity="0.08"/>
  <polygon points="380,0 520,0 680,600 500,600" fill="#ffffff" opacity="0.08"/>

  <path d="M 0 490 Q 250 460 500 500 Q 680 520 800 480 L 800 600 L 0 600 Z" fill="#f59e0b" opacity="0.85"/>
  <path d="M 80 510 C 80 430, 40 400, 60 370 C 80 410, 110 430, 100 510 Z" fill="#ec4899"/>
  <path d="M 120 520 C 130 420, 180 390, 160 360 C 140 410, 140 450, 135 520 Z" fill="#a855f7"/>
  <path d="M 680 500 C 660 410, 720 380, 710 350 C 730 390, 710 450, 720 500 Z" fill="#10b981"/>
  <path d="M 730 520 C 740 440, 780 420, 770 390 C 790 420, 780 470, 760 520 Z" fill="#f43f5e"/>

  <g transform="translate(340, 310)" filter="drop-shadow(0 15px 30px rgba(0,0,0,0.5))">
    <rect x="-160" y="-12" width="25" height="24" fill="#eab308" rx="4"/>
    <ellipse cx="-165" cy="-15" rx="8" ry="18" fill="#ca8a04" transform="rotate(30 -165 -15)"/>
    <ellipse cx="-165" cy="15" rx="8" ry="18" fill="#ca8a04" transform="rotate(-30 -165 15)"/>
    <ellipse cx="0" cy="0" rx="140" ry="70" fill="#eab308"/>
    <path d="M -60 -70 Q 0 -115 40 -70 Z" fill="#ca8a04"/>
    <rect x="10" y="-130" width="16" height="65" fill="#a16207" rx="4"/>
    <rect x="10" y="-135" width="40" height="16" fill="#a16207" rx="6"/>
    <circle cx="-60" cy="0" r="26" fill="#38bdf8" stroke="#ffffff" stroke-width="6"/>
    <circle cx="10" cy="0" r="26" fill="#38bdf8" stroke="#ffffff" stroke-width="6"/>
    <circle cx="80" cy="0" r="26" fill="#38bdf8" stroke="#ffffff" stroke-width="6"/>
    <polygon points="135,0 350,-80 350,80 135,15" fill="#fef08a" opacity="0.3"/>
  </g>

  <g transform="translate(180, 160)" filter="url(#waterShine)">
    <circle cx="0" cy="0" r="42" fill="url(#bubbleGlow)" stroke="#ffffff" stroke-width="3"/>
    <ellipse cx="-12" cy="-14" rx="10" ry="5" fill="#ffffff" opacity="0.8" transform="rotate(-30 -12 -14)"/>
    <text x="0" y="8" font-family="system-ui, sans-serif" font-size="20" font-weight="900" fill="#0369a1" text-anchor="middle">CAT</text>
  </g>

  <g transform="translate(480, 120)" filter="url(#waterShine)">
    <circle cx="0" cy="0" r="52" fill="url(#bubbleGlow)" stroke="#ffffff" stroke-width="3.5"/>
    <ellipse cx="-16" cy="-18" rx="12" ry="6" fill="#ffffff" opacity="0.85" transform="rotate(-30 -16 -18)"/>
    <text x="0" y="10" font-family="system-ui, sans-serif" font-size="24" font-weight="900" fill="#0e7490" text-anchor="middle">HAT</text>
  </g>

  <g transform="translate(680, 200)" filter="url(#waterShine)">
    <circle cx="0" cy="0" r="40" fill="url(#bubbleGlow)" stroke="#ffffff" stroke-width="3"/>
    <text x="0" y="7" font-family="system-ui, sans-serif" font-size="18" font-weight="900" fill="#0369a1" text-anchor="middle">BAT</text>
  </g>
</svg>